<svg version="1.1" id="Layer_1" xmlns="http://www.w3.org/2000/svg" xmlns:xlink="http://www.w3.org/1999/xlink" x="0px" y="0px"
	 width="100%" viewBox="0 0 640 208" enable-background="new 0 0 640 208" xml:space="preserve">
<path fill="#000000" opacity="1.000000" stroke="none" 
	d="
M169.524567,51.212257 
	C176.411057,48.549599 183.089890,48.860073 189.985214,48.998013 
	C197.035858,49.139061 204.269348,49.930130 211.212799,48.883476 
	C237.863480,44.866173 261.217377,69.110359 255.835876,95.542053 
	C254.022308,104.449554 251.414871,112.955360 245.523956,120.103020 
	C244.054611,121.885834 244.221436,123.715157 244.807724,125.735336 
	C246.986481,133.242599 249.093262,140.770706 251.247803,148.285065 
	C251.817612,150.272339 252.461990,152.160538 249.700150,153.151657 
	C234.842239,158.483612 220.001282,163.862823 205.622498,169.056656 
	C203.040482,168.109085 204.335175,165.616135 202.333740,164.472244 
	C197.412216,164.901215 192.943665,168.471878 187.778168,168.773193 
	C186.200073,167.575607 187.047470,165.760696 186.134552,164.276398 
	C180.526886,164.630676 175.784912,168.449554 169.569336,168.793472 
	C168.488724,162.694519 169.084106,156.731918 168.971207,150.827972 
	C168.821533,143.000427 166.540863,141.078308 158.688385,142.061920 
	C155.415146,142.471939 152.183578,143.398315 148.780640,142.833328 
	C144.709900,142.157471 142.454727,140.167542 142.660110,135.839127 
	C142.802155,132.845688 142.493622,129.781845 143.032089,126.868797 
	C143.689972,123.309601 142.122711,122.090050 139.049637,121.441750 
	C129.693069,119.467873 128.685196,117.048019 133.551178,108.599327 
	C134.797424,106.435486 135.998276,104.239464 137.359207,102.148865 
	C141.200897,96.247490 143.385086,89.911095 144.700607,82.887138 
	C147.406158,68.441360 155.932480,57.939690 169.524567,51.212257 
M219.908234,158.320129 
	C228.427628,155.167664 236.947021,152.015213 245.680984,148.783356 
	C243.240234,140.179321 240.976761,132.198212 238.711853,124.217491 
	C238.170959,122.311569 237.437866,120.559357 239.230759,118.688980 
	C248.765320,108.742401 251.460587,96.535187 250.662018,83.221588 
	C249.515732,64.111343 226.452118,48.863598 208.543350,55.402058 
	C194.729767,60.445358 186.873474,70.769943 184.414688,84.781021 
	C183.138641,92.052353 180.707642,98.416046 176.734741,104.460442 
	C174.574387,107.747223 172.862503,111.328789 170.696609,115.230919 
	C174.128571,116.004005 176.996643,116.661644 179.870407,117.293358 
	C181.782227,117.713623 183.537094,118.379150 183.249329,120.782219 
	C182.749786,124.953560 184.877731,126.054459 188.558731,125.739265 
	C190.132812,125.604477 191.632172,125.985550 191.775818,128.010727 
	C191.929977,130.183441 190.566391,130.930801 188.697891,131.108170 
	C187.371628,131.234055 186.037979,131.281097 184.710907,131.399933 
	C182.726410,131.577621 182.388855,132.951340 182.399734,134.602127 
	C182.411438,136.378494 183.190811,137.513489 185.027176,137.556290 
	C186.174438,137.583008 187.342072,137.401047 188.476852,137.187012 
	C195.110428,135.935776 201.737000,134.647385 209.291840,133.193344 
	C209.291840,142.924759 209.291840,151.954559 209.291840,161.087646 
	C213.381638,161.075912 216.117645,159.227966 219.908234,158.320129 
M181.862366,60.332226 
	C173.274109,67.171097 168.011047,76.167351 166.609085,86.882080 
	C165.977692,91.707672 164.528976,95.798973 162.192047,99.838089 
	C159.315979,104.809044 156.535706,109.835419 153.661957,114.930168 
	C157.372864,116.809967 160.785095,116.883034 164.475235,116.890686 
	C164.933197,113.483566 166.797882,110.920471 168.269592,108.145981 
	C172.202454,100.731705 178.055710,94.158745 178.620087,85.231155 
	C178.779922,82.702789 179.607590,80.374161 180.397797,78.006950 
	C183.516739,68.663490 189.290512,61.180019 197.580658,54.400364 
	C191.170609,54.621655 186.751480,57.098576 181.862366,60.332226 
M139.296127,109.659416 
	C138.502701,111.420174 136.779343,112.806343 137.080536,115.118500 
	C140.241257,116.942703 143.655121,116.902245 147.112167,116.846100 
	C149.078262,110.526894 152.855820,105.411934 155.827316,99.872986 
	C157.687057,96.406380 160.435684,93.397369 160.767883,89.135628 
	C161.412292,80.868141 164.082306,73.302155 168.854980,66.424309 
	C171.890945,62.049213 175.786819,58.542061 179.828156,54.902203 
	C177.971985,54.032684 176.581345,54.564411 175.171890,55.008278 
	C161.424683,59.337631 150.172043,73.609596 149.311737,88.008385 
	C149.107529,91.426018 148.203751,94.476822 146.390015,97.385902 
	C144.018173,101.190094 141.882324,105.141426 139.296127,109.659416 
M195.621063,160.726410 
	C204.851044,157.545944 203.553574,159.196899 203.676147,149.449234 
	C203.684479,148.786209 203.677490,148.123001 203.677078,147.459869 
	C203.672226,139.659515 203.007263,139.208115 195.476822,141.471786 
	C193.263474,142.137115 192.121292,143.353714 192.153625,145.720444 
	C192.210220,149.863785 192.144333,154.008728 192.192841,158.152267 
	C192.212936,159.870453 192.259186,161.722092 195.621063,160.726410 
M175.053726,143.188278 
	C173.976883,149.210281 174.397690,155.202194 174.578659,161.301483 
	C185.706665,159.713654 186.678558,158.711227 186.653625,149.590378 
	C186.635910,143.108643 182.191010,140.354767 175.053726,143.188278 
M159.692062,133.130966 
	C161.156754,120.979881 162.506699,123.142548 150.299118,120.362801 
	C150.151642,120.329231 149.976028,120.419220 149.664856,120.481094 
	C148.423752,124.069107 148.163818,127.860931 148.327759,131.662521 
	C148.417801,133.750534 146.902756,137.140137 150.330826,137.362915 
	C153.603973,137.575607 157.834305,138.534576 159.692062,133.130966 
M165.823761,127.217926 
	C165.654800,129.031372 165.363586,130.843857 165.349197,132.658539 
	C165.332779,134.726578 164.798553,137.674179 168.018219,137.445450 
	C170.938934,137.237976 174.848160,138.119278 176.456985,134.708862 
	C180.300201,126.561928 177.672287,121.987297 168.932785,120.878098 
	C168.308884,120.798912 167.666199,120.867737 167.160477,120.867737 
	C165.854767,122.688850 166.367508,124.622101 165.823761,127.217926 
z"/>
<path fill="#000000" opacity="1.000000" stroke="none" 
	d="
M451.976440,112.017448 
	C456.231140,110.374474 461.159576,111.300072 465.109833,108.059853 
	C466.694702,106.759857 469.479919,107.450073 471.053986,109.203011 
	C472.459076,110.767776 474.002747,110.981171 475.910248,111.022308 
	C480.356201,111.118187 484.228973,110.910675 482.413513,104.644554 
	C481.904358,102.887177 483.356995,102.317635 484.651428,101.953232 
	C486.396240,101.462059 487.208191,102.530968 487.236511,104.061974 
	C487.280548,106.441551 488.086212,107.533112 490.706146,107.803246 
	C494.935760,108.239357 493.424622,111.976707 493.908081,114.544914 
	C495.165405,114.824181 495.430450,113.667168 495.494904,113.121948 
	C496.112244,107.899956 497.884155,106.227837 502.407776,108.249825 
	C505.730530,109.735031 507.963196,106.992271 511.008484,107.532799 
	C513.831543,108.033875 516.600586,107.803261 518.302002,111.197227 
	C520.550354,107.890533 525.874634,108.323685 525.656921,103.170845 
	C525.645386,102.899269 527.414978,102.237297 528.310730,102.309700 
	C530.046387,102.450005 530.102112,104.006340 530.171448,105.336525 
	C530.368835,109.123863 529.847290,112.955208 531.044678,116.609001 
	C525.836609,119.237885 521.783508,118.760880 518.131165,114.656967 
	C518.582581,117.802887 517.018005,118.316681 514.799561,118.303261 
	C505.011108,118.244011 495.219910,118.151337 485.434692,118.335396 
	C482.052399,118.399025 480.835175,113.937035 477.073334,114.989792 
	C475.230103,115.505638 473.309113,114.304543 471.729553,117.014908 
	C470.320740,119.432228 466.228271,119.017113 464.421387,117.852600 
	C461.180725,115.764008 457.939392,114.894577 454.287018,114.629303 
	C453.227051,114.552307 452.587860,113.669556 452.119019,112.322815 
	C452.000458,111.982590 451.976440,112.017448 451.976440,112.017448 
z"/>
<path fill="#000000" opacity="1.000000" stroke="none" 
	d="
M416.027740,116.052017 
	C415.790466,109.032745 417.614594,107.388779 424.764526,108.364410 
	C427.417969,108.726479 429.780487,107.267860 432.538910,107.604851 
	C435.069153,107.913963 437.429657,107.914696 439.258453,110.471191 
	C441.696503,107.821785 446.961090,108.737808 446.502167,103.201675 
	C446.437469,102.421310 448.349640,101.921417 449.525208,102.108078 
	C450.648346,102.286407 451.059479,103.282188 451.179199,104.310425 
	C451.446350,106.604393 451.657135,108.904922 451.933655,111.610115 
	C451.976440,112.017448 452.000458,111.982590 452.008484,111.962364 
	C450.810547,113.477386 452.143707,115.155640 451.589539,117.498047 
	C443.533875,117.498047 435.286011,117.498047 426.877258,117.498047 
	C426.877258,115.828659 426.877258,114.050774 426.877258,112.272888 
	C426.067078,114.441750 425.500519,116.632614 422.963928,117.678680 
	C420.416595,118.729164 418.484406,117.978867 416.311646,116.182625 
	C416.004211,116.013832 416.027740,116.052017 416.027740,116.052017 
z"/>
<path fill="#000000" opacity="1.000000" stroke="none" 
	d="
M400.943604,105.438133 
	C401.242676,109.467201 400.213928,113.137070 401.532684,116.638824 
	C400.370667,117.930969 398.960205,118.185066 397.412262,118.179405 
	C388.108185,118.145378 378.804047,118.132248 369.499908,118.127533 
	C367.605377,118.126572 365.603302,117.198654 366.064911,115.480263 
	C366.742554,112.957512 364.424561,109.176033 368.645538,107.960670 
	C371.081482,107.259285 373.171295,107.689301 374.671539,110.099434 
	C375.624817,111.630905 374.756348,113.791977 376.543304,115.073021 
	C378.769531,113.059319 376.816132,111.136513 376.507050,109.269806 
	C381.948273,105.958138 386.373871,106.992447 388.629242,112.452560 
	C390.288452,110.299339 391.585480,107.885529 394.497925,107.593941 
	C395.987122,107.444839 396.331085,106.400436 396.065704,105.047417 
	C395.712402,103.245956 396.947296,102.745918 398.314331,102.400581 
	C400.637207,101.813774 400.622620,103.579742 400.943604,105.438133 
z"/>
<path fill="#000000" opacity="1.000000" stroke="none" 
	d="
M294.823151,115.930023 
	C290.537292,119.092361 286.124390,118.221184 281.236633,117.897194 
	C283.272552,113.007172 283.961151,108.449409 281.311859,103.553322 
	C285.684143,102.206566 290.379120,101.338013 293.463257,104.436569 
	C296.121521,107.107300 296.125275,111.643204 294.823151,115.930023 
M287.406860,113.444771 
	C287.806793,115.361122 288.794495,116.095169 290.413849,114.646980 
	C291.356995,113.803551 291.508514,112.525864 290.431366,111.647858 
	C288.860565,110.367447 287.748962,110.787346 287.406860,113.444771 
z"/>
<path fill="#000000" opacity="1.000000" stroke="none" 
	d="
M342.811584,114.053131 
	C341.839783,112.127060 341.025543,110.528526 339.860931,108.242165 
	C345.991211,107.224213 351.623169,107.827126 357.765991,107.853745 
	C356.223724,111.771935 355.335114,115.378098 352.629791,117.980492 
	C350.275726,117.683022 350.574432,115.288910 348.949402,114.356125 
	C348.114899,115.453773 347.258209,116.580635 346.479095,117.605400 
	C343.999176,117.673660 343.850220,115.654045 342.811584,114.053131 
z"/>
<path fill="#000000" opacity="1.000000" stroke="none" 
	d="
M311.010925,108.190369 
	C316.546844,107.988457 321.767151,107.988457 327.701996,107.988457 
	C326.688843,111.560547 320.563293,113.016823 324.942322,117.212227 
	C322.947693,118.670403 321.181061,118.131874 319.243347,118.092079 
	C318.495819,115.740784 320.764191,113.404976 318.967102,111.247345 
	C317.491302,110.957687 316.130310,111.270958 315.064423,112.253822 
	C313.753448,114.385208 316.500946,115.596603 315.993073,117.549232 
	C314.151825,118.967659 312.324432,118.015388 310.226685,117.742233 
	C310.392944,114.425102 310.544128,111.408691 311.010925,108.190369 
z"/>
<path fill="#000000" opacity="1.000000" stroke="none" 
	d="
M333.084167,118.231232 
	C329.586395,117.415527 327.665192,115.521790 327.898315,112.237854 
	C328.068817,109.836563 329.861786,108.365776 332.095306,107.916077 
	C335.404724,107.249756 338.761383,107.512741 339.514252,111.591324 
	C340.334747,116.036339 337.438293,117.776787 333.084167,118.231232 
z"/>
<path fill="#000000" opacity="1.000000" stroke="none" 
	d="
M297.131165,113.670929 
	C296.873505,111.476440 297.574371,110.093353 299.018402,109.007744 
	C301.931122,106.817978 306.587128,107.334015 308.307739,110.166946 
	C310.030609,113.003670 308.983459,115.232590 306.474823,116.950333 
	C302.936432,119.373192 299.917480,118.407501 297.131165,113.670929 
M303.332428,115.209854 
	C305.782257,113.140236 304.755768,111.767525 302.350830,110.288681 
	C301.051178,112.250229 300.872559,113.763542 303.332428,115.209854 
z"/>
<path fill="#000000" opacity="1.000000" stroke="none" 
	d="
M415.990845,115.995987 
	C414.958221,120.037567 412.325470,117.866844 409.928680,117.840691 
	C410.613525,112.905922 411.517303,108.312057 409.581573,103.926216 
	C410.689667,102.296860 412.134491,102.358978 413.801819,102.576561 
	C415.156586,106.825600 413.506775,111.512428 415.785461,115.856293 
	C416.027740,116.052017 416.004211,116.013832 415.990845,115.995987 
z"/>
<path fill="#000000" opacity="1.000000" stroke="none" 
	d="
M236.231354,92.941452 
	C222.810730,87.827095 209.752640,82.853905 196.691360,77.889122 
	C190.561020,75.558899 190.303589,74.686714 194.302261,69.633888 
	C203.204346,58.385040 214.526443,54.592350 226.899933,58.714283 
	C239.202560,62.812614 247.654999,74.150505 248.005615,87.400650 
	C248.078476,90.154106 247.294342,92.930237 246.893524,95.778587 
	C242.840469,96.170105 239.919876,93.835831 236.231354,92.941452 
z"/>
<path fill="#000000" opacity="1.000000" stroke="none" 
	d="
M194.327240,105.030830 
	C191.021973,103.340111 189.892258,101.058914 191.601624,98.012001 
	C192.801407,95.873405 194.914032,95.340607 197.163300,95.961472 
	C199.577133,96.627785 200.572052,98.468544 200.236374,100.880806 
	C199.799438,104.020645 197.857758,105.395836 194.327240,105.030830 
z"/>
</svg>